# xmcd CD database file
#
# Track frame offsets:
#	182
#	22797
#	48617
#	78592
#	124287
#	153930
#	177110
#	187617
#	200685
#	225925
#	249907
#	271717
#
# Disc length: 3978 seconds
#
# Revision: 0
# Processed by: cddbd v1.4PL0 Copyright (c) Steve Scherf et al.
# Submitted via: CDex 1.50
#
DISCID=880f880c
DTITLE=Bluesiana Hurricane - Bluesiana Hurricane
DYEAR=1995
DGENRE=Blues
TTITLE0=Big Fine Hunk of Woman
TTITLE1=Hubidy
TTITLE2=The World is Round
TTITLE3=On and Off
TTITLE4=A Bitter Dose
TTITLE5=Honky Tonk, Part I
TTITLE6=Honky Tonk, Part II
TTITLE7=Barefootin'
TTITLE8=Some Shade Stuff
TTITLE9=Walking the Dog
TTITLE10=Halfsteppin'
TTITLE11=Soulful High Yellow
EXTD=YEAR: 1995
EXTT0=
EXTT1=
EXTT2=
EXTT3=
EXTT4=
EXTT5=
EXTT6=
EXTT7=
EXTT8=
EXTT9=
EXTT10=
EXTT11=
PLAYORDER=
